<svg width="120" height="120" viewBox="0 0 120 120" xmlns="http://www.w3.org/2000/svg">
  <!-- Event-driven architecture icon -->
  <circle cx="60" cy="60" r="55" fill="#dcfce7" stroke="#16a34a" stroke-width="2"/>
  
  <!-- Event bus in center -->
  <rect x="40" y="50" width="40" height="20" rx="3" fill="#16a34a" stroke="#15803d" stroke-width="2"/>
  <text x="60" y="64" font-family="monospace" font-size="10" font-weight="bold" fill="#ffffff" text-anchor="middle">Bus</text>
  
  <!-- Publishers -->
  <circle cx="20" cy="30" r="8" fill="#4ade80" stroke="#16a34a" stroke-width="2"/>
  <text x="20" y="34" font-family="monospace" font-size="10" font-weight="bold" fill="#ffffff" text-anchor="middle">P</text>
  
  <circle cx="20" cy="90" r="8" fill="#4ade80" stroke="#16a34a" stroke-width="2"/>
  <text x="20" y="94" font-family="monospace" font-size="10" font-weight="bold" fill="#ffffff" text-anchor="middle">P</text>
  
  <!-- Subscribers -->
  <circle cx="100" cy="30" r="8" fill="#86efac" stroke="#16a34a" stroke-width="2"/>
  <text x="100" y="34" font-family="monospace" font-size="10" font-weight="bold" fill="#166534" text-anchor="middle">S</text>
  
  <circle cx="100" cy="60" r="8" fill="#86efac" stroke="#16a34a" stroke-width="2"/>
  <text x="100" y="64" font-family="monospace" font-size="10" font-weight="bold" fill="#166534" text-anchor="middle">S</text>
  
  <circle cx="100" cy="90" r="8" fill="#86efac" stroke="#16a34a" stroke-width="2"/>
  <text x="100" y="94" font-family="monospace" font-size="10" font-weight="bold" fill="#166534" text-anchor="middle">S</text>
  
  <!-- Arrows -->
  <path d="M 28 32 L 38 52" stroke="#16a34a" stroke-width="2" marker-end="url(#arrowgreen)"/>
  <path d="M 28 88 L 38 68" stroke="#16a34a" stroke-width="2" marker-end="url(#arrowgreen)"/>
  <path d="M 82 58 L 92 35" stroke="#16a34a" stroke-width="2" marker-end="url(#arrowgreen)"/>
  <path d="M 82 60 L 92 60" stroke="#16a34a" stroke-width="2" marker-end="url(#arrowgreen)"/>
  <path d="M 82 62 L 92 85" stroke="#16a34a" stroke-width="2" marker-end="url(#arrowgreen)"/>
  
  <defs>
    <marker id="arrowgreen" markerWidth="10" markerHeight="10" refX="9" refY="3" orient="auto" markerUnits="strokeWidth">
      <path d="M0,0 L0,6 L9,3 z" fill="#16a34a" />
    </marker>
  </defs>
</svg>
